<svg xmlns="http://www.w3.org/2000/svg" viewBox="-25.6 -51.2 563.2 691.2" x="0px" y="0px"><g><path d="M443.2666,69.7325a7.9989,7.9989,0,0,0-6.5518-1.7334,1013.0077,1013.0077,0,0,1-361.43,0,8,8,0,0,0-9.4224,7.8726v223.915a8,8,0,0,0,9.4224,7.8726,1013.0123,1013.0123,0,0,1,361.43,0,8,8,0,0,0,9.4224-7.8726V75.8717A8,8,0,0,0,443.2666,69.7325ZM430.1372,290.256a1028.6183,1028.6183,0,0,0-348.2744,0V85.402a1028.4886,1028.4886,0,0,0,348.2744,0Z"/><path d="M401.0327,358.858H372.8385A35.2992,35.2992,0,0,0,337.59,324.2233H301.2964a35.2993,35.2993,0,0,0-35.2492,34.6347H245.9528a35.2993,35.2993,0,0,0-35.2492-34.6347H174.41a35.2992,35.2992,0,0,0-35.2487,34.6347H110.9673a35.305,35.305,0,0,0-35.2647,35.2652v42.0053a8,8,0,0,0,8,8h90.8228a8,8,0,0,0,8-8V409.4933h20.063v26.6352a8,8,0,0,0,8,8h90.8232a8,8,0,0,0,8-8V409.4933h20.063v26.6352a8,8,0,0,0,8,8h90.8228a8,8,0,0,0,8-8V394.1232A35.305,35.305,0,0,0,401.0327,358.858Zm-234.5073,69.27H91.7026V394.1232a19.2866,19.2866,0,0,1,19.2647-19.2652h36.2934a19.2866,19.2866,0,0,1,19.2647,19.2652Zm36.079-34.6352h-20.095a35.3158,35.3158,0,0,0-27.3639-33.7355v-.27A19.2865,19.2865,0,0,1,174.41,340.2233h36.2934a19.2866,19.2866,0,0,1,19.2652,19.2646v.27A35.3157,35.3157,0,0,0,202.6044,393.4933Zm90.8072,34.6352H218.5884V394.1232A19.2866,19.2866,0,0,1,237.853,374.858h36.294a19.2866,19.2866,0,0,1,19.2646,19.2652Zm36.079-34.6352h-20.095a35.3157,35.3157,0,0,0-27.3644-33.7356v-.27a19.2866,19.2866,0,0,1,19.2652-19.2646H337.59a19.2865,19.2865,0,0,1,19.2647,19.2646v.27A35.3158,35.3158,0,0,0,329.4906,393.4933Zm90.8068,34.6352H345.4746V394.1232a19.2866,19.2866,0,0,1,19.2647-19.2652h36.2934a19.2866,19.2866,0,0,1,19.2647,19.2652Z"/></g><text x="0.0" y="601.6" font-size="25.6" font-weight="bold" font-family="Arbeit Regular, Helvetica, Arial-Unicode, Arial, Sans-serif" fill="#000000">Created by Rafiico Creative Studio</text><text x="0.0" y="627.2" font-size="25.6" font-weight="bold" font-family="Arbeit Regular, Helvetica, Arial-Unicode, Arial, Sans-serif" fill="#000000">from Noun Project</text></svg>