<svg xmlns="http://www.w3.org/2000/svg" viewBox="-25.6 -51.2 563.2 691.2" x="0px" y="0px"><g><path d="M403.686,223.341H163.6152l156.002-69.502.0048-.0019.0048-.0024,62.4478-27.8218a8.0006,8.0006,0,0,0,4.0518-10.5635L365.433,69.0017A8,8,0,0,0,354.87,64.95L292.4224,92.7713l-.006.0023-.0056.003L105.058,176.2458a8.0007,8.0007,0,0,0-4.0517,10.5635L121.7,233.257a8.0244,8.0244,0,0,0,.5034.9362V425.1384a22.63,22.63,0,0,0,22.605,22.6045H389.081a22.63,22.63,0,0,0,22.605-22.6045V231.341A8,8,0,0,0,403.686,223.341Zm-8,50.8492H343.3154V239.341H395.686Zm-120.7412,0V239.341h52.3706V274.19Zm-66.7793,0V239.341h50.7793V274.19Zm-69.962,0V239.341h53.962V274.19ZM229.1677,138.469l14.182,31.8324L196.966,190.9662l-14.182-31.8326Zm62.4528-27.824,14.1821,31.8324L257.965,163.79l-14.1819-31.8325Zm76.6348,4.0085L320.418,135.966l-14.1821-31.8325L354.0737,82.821ZM118.8774,187.6052l49.2912-21.96,14.182,31.8325-49.2911,21.96ZM389.081,431.7429H144.8085a6.6123,6.6123,0,0,1-6.605-6.6045V290.19H395.686V425.1384A6.6123,6.6123,0,0,1,389.081,431.7429Z"/><rect x="172.6489" y="325.3601" width="188.5918" height="16"/><rect x="325.5497" y="371.0984" width="27.6909" height="16"/><rect x="175.5497" y="371.0984" width="31" height="16"/><rect x="225.5497" y="371.0984" width="31" height="16"/><rect x="275.5497" y="371.0984" width="31" height="16"/></g><text x="0.0" y="601.6" font-size="25.6" font-weight="bold" font-family="Arbeit Regular, Helvetica, Arial-Unicode, Arial, Sans-serif" fill="#000000">Created by Rafiico Creative Studio</text><text x="0.0" y="627.2" font-size="25.6" font-weight="bold" font-family="Arbeit Regular, Helvetica, Arial-Unicode, Arial, Sans-serif" fill="#000000">from Noun Project</text></svg>