<svg xmlns="http://www.w3.org/2000/svg" viewBox="-25.6 -51.2 563.2 691.2" x="0px" y="0px"><g><path d="M172.1821,249.9009A107.3754,107.3754,0,0,0,242.32,223.8374a7.9957,7.9957,0,0,0-5.5447-14.0449,74.5857,74.5857,0,0,0-23.1989-35.8179l-10.8428-9.2441a48.4158,48.4158,0,1,0-61.1021,0l-10.8427,9.2441a74.5853,74.5853,0,0,0-22.567,33.7477A91.3722,91.3722,0,0,1,234.93,76.05,8,8,0,1,0,245.917,64.4189a107.3968,107.3968,0,1,0-73.7349,185.482ZM141.1689,186.15l19.0748-16.2622a8.0006,8.0006,0,0,0-1.795-13.3316,32.4156,32.4156,0,1,1,27.4668,0,8,8,0,0,0-1.7944,13.3316L203.1963,186.15a58.6686,58.6686,0,0,1,19.3762,32.5968,91.2771,91.2771,0,0,1-100.7754-.0287A58.6671,58.6671,0,0,1,141.1689,186.15Z"/><path d="M339.8179,249.9009a107.3968,107.3968,0,1,0-107.397-107.397A107.5184,107.5184,0,0,0,339.8179,249.9009Zm-50.3851-31.1822A58.67,58.67,0,0,1,308.8037,186.15l19.0757-16.2622a8.0005,8.0005,0,0,0-1.7949-13.3316,32.4158,32.4158,0,1,1,27.4663,0,8,8,0,0,0-1.7945,13.3316L370.8315,186.15a58.6681,58.6681,0,0,1,19.3714,32.5681,91.1968,91.1968,0,0,1-100.77,0ZM339.8179,51.1074a91.3483,91.3483,0,0,1,63.96,156.6149,74.5853,74.5853,0,0,0-22.567-33.7477l-10.8427-9.2441a48.416,48.416,0,1,0-61.1016,0l-10.8433,9.2441a74.5845,74.5845,0,0,0-22.5667,33.7479A91.3483,91.3483,0,0,1,339.8179,51.1074Z"/><path d="M339.8179,262.0991a107.4207,107.4207,0,0,0-69.687,25.6768,8,8,0,0,0,10.3867,12.17A91.3711,91.3711,0,0,1,403.7784,434.7141a74.5853,74.5853,0,0,0-22.567-33.7478l-10.8427-9.2441a48.4157,48.4157,0,1,0-61.1016,0l-10.8438,9.2436a74.6136,74.6136,0,0,0-24.2991,40.0062,7.9838,7.9838,0,0,0-.6159,13.01q1.2027.9456,2.4316,1.8555a107.3994,107.3994,0,1,0,63.878-193.7393ZM289.4268,445.7428a58.6721,58.6721,0,0,1,19.3769-32.6007L327.8794,396.88a8.0005,8.0005,0,0,0-1.7949-13.3316,32.4158,32.4158,0,1,1,27.4663,0,8,8,0,0,0-1.7945,13.3316l19.0752,16.2622A58.6737,58.6737,0,0,1,390.2028,445.71a91.2881,91.2881,0,0,1-100.776.0325Z"/><path d="M172.1821,262.0991a107.3968,107.3968,0,1,0,107.397,107.397A107.5184,107.5184,0,0,0,172.1821,262.0991ZM121.7972,445.71a58.6723,58.6723,0,0,1,19.3717-32.5682L160.2437,396.88a8.0006,8.0006,0,0,0-1.795-13.3316,32.4156,32.4156,0,1,1,27.4668,0,8,8,0,0,0-1.7944,13.3316l19.0752,16.2622h-.0005A58.67,58.67,0,0,1,222.5671,445.71a91.1968,91.1968,0,0,1-100.77,0Zm114.3456-10.9959a74.5886,74.5886,0,0,0-22.5661-33.7481h0l-10.8428-9.2441a48.4158,48.4158,0,1,0-61.1021,0l-10.8427,9.2441a74.5853,74.5853,0,0,0-22.567,33.7478,91.3968,91.3968,0,1,1,127.9212,0Z"/></g><text x="0.0" y="601.6" font-size="25.6" font-weight="bold" font-family="Arbeit Regular, Helvetica, Arial-Unicode, Arial, Sans-serif" fill="#000000">Created by Rafiico Creative Studio</text><text x="0.0" y="627.2" font-size="25.6" font-weight="bold" font-family="Arbeit Regular, Helvetica, Arial-Unicode, Arial, Sans-serif" fill="#000000">from Noun Project</text></svg>